# xmcd CD database file
#
# Track frame offsets:
#	150
#	25228
#	37948
#	49915
#	60768
#	84328
#	101033
#	123756
#	144250
#	156903
#	169868
#	185166
#
# Disc length: 2957 seconds
#
# Revision: 0
# Processed by: cddbd v1.5.1PL2 Copyright (c) Steve Scherf et al.
# Submitted via: CDex 1.51
#
DISCID=930b8b0c
DTITLE=DERMOT O'BRIEN - DERMOT O'BRIEN
DYEAR=1900
DGENRE=Country
TTITLE0=O'CAROLANS TRIBUTE
TTITLE1=I HELD A LADY
TTITLE2=MACRCK OF THE HIGH KING OF LAOIS
TTITLE3=O'CAROLANS CONCERTO
TTITLE4=PADDY'S GREEN SHAMROCK SHORE
TTITLE5=FIDDLERS GREEN
TTITLE6=DUTCHMAN
TTITLE7=CARRIGFERGUS
TTITLE8=KERRY SLIDES
TTITLE9=KING OF THE FAIRIES - MADAME BONAPARTE
TTITLE10=ANNA LIFFEY
TTITLE11=AND THE PLAY WALTZING MATILDA
EXTD=
EXTT0=
EXTT1=
EXTT2=
EXTT3=
EXTT4=
EXTT5=
EXTT6=
EXTT7=
EXTT8=
EXTT9=
EXTT10=
EXTT11=
PLAYORDER=
